<svg width="35" height="35" viewBox="0 0 35 35" fill="none" xmlns="http://www.w3.org/2000/svg">
<mask id="mask0_309_165" style="mask-type:alpha" maskUnits="userSpaceOnUse" x="0" y="0" width="35" height="35">
<rect x="0.453857" y="0.176025" width="34" height="34" fill="#D9D9D9"/>
</mask>
<g mask="url(#mask0_309_165)">
<path d="M12.6371 32.051L9.94548 27.5177L4.84548 26.3844L5.34132 21.1427L1.87048 17.176L5.34132 13.2094L4.84548 7.96769L9.94548 6.83436L12.6371 2.30103L17.4538 4.35519L22.2705 2.30103L24.9622 6.83436L30.0621 7.96769L29.5663 13.2094L33.0371 17.176L29.5663 21.1427L30.0621 26.3844L24.9622 27.5177L22.2705 32.051L17.4538 29.9969L12.6371 32.051ZM15.9663 22.2052L23.9705 14.201L21.9871 12.1469L15.9663 18.1677L12.9205 15.1927L10.9372 17.176L15.9663 22.2052Z" fill="white"/>
</g>
</svg>
