<svg width="35" height="35" viewBox="0 0 35 35" fill="none" xmlns="http://www.w3.org/2000/svg">
<mask id="mask0_309_194" style="mask-type:alpha" maskUnits="userSpaceOnUse" x="0" y="0" width="35" height="35">
<rect x="0.453857" y="0.176025" width="34" height="34" fill="#D9D9D9"/>
</mask>
<g mask="url(#mask0_309_194)">
<path d="M6.12056 24.2594V27.0927H28.7872V24.2594H6.12056ZM6.12056 8.67607H9.23723C9.11918 8.46357 9.04244 8.23926 9.00702 8.00315C8.97161 7.76704 8.9539 7.51912 8.9539 7.2594C8.9539 6.07884 9.36709 5.07537 10.1935 4.24898C11.0199 3.42259 12.0233 3.0094 13.2039 3.0094C13.9122 3.0094 14.5674 3.19239 15.1695 3.55836C15.7716 3.92433 16.297 4.37884 16.7456 4.9219L17.4539 5.84273L18.1622 4.9219C18.5872 4.35523 19.1067 3.89482 19.7206 3.54065C20.3345 3.18648 20.9956 3.0094 21.7039 3.0094C22.8845 3.0094 23.8879 3.42259 24.7143 4.24898C25.5407 5.07537 25.9539 6.07884 25.9539 7.2594C25.9539 7.51912 25.9362 7.76704 25.9008 8.00315C25.8654 8.23926 25.7886 8.46357 25.6706 8.67607H28.7872C29.5664 8.67607 30.2334 8.9535 30.7883 9.50836C31.3431 10.0632 31.6206 10.7302 31.6206 11.5094V27.0927C31.6206 27.8719 31.3431 28.5389 30.7883 29.0938C30.2334 29.6486 29.5664 29.9261 28.7872 29.9261H6.12056C5.3414 29.9261 4.67438 29.6486 4.11952 29.0938C3.56466 28.5389 3.28723 27.8719 3.28723 27.0927V11.5094C3.28723 10.7302 3.56466 10.0632 4.11952 9.50836C4.67438 8.9535 5.3414 8.67607 6.12056 8.67607ZM6.12056 20.0094H28.7872V11.5094H21.5622L24.5372 15.5469L22.2706 17.1761L17.4539 10.6594L12.6372 17.1761L10.3706 15.5469L13.2747 11.5094H6.12056V20.0094ZM13.2039 8.67607C13.6053 8.67607 13.9417 8.5403 14.2133 8.26877C14.4848 7.99725 14.6206 7.66079 14.6206 7.2594C14.6206 6.85801 14.4848 6.52155 14.2133 6.25002C13.9417 5.9785 13.6053 5.84273 13.2039 5.84273C12.8025 5.84273 12.4661 5.9785 12.1945 6.25002C11.923 6.52155 11.7872 6.85801 11.7872 7.2594C11.7872 7.66079 11.923 7.99725 12.1945 8.26877C12.4661 8.5403 12.8025 8.67607 13.2039 8.67607ZM21.7039 8.67607C22.1053 8.67607 22.4417 8.5403 22.7133 8.26877C22.9848 7.99725 23.1206 7.66079 23.1206 7.2594C23.1206 6.85801 22.9848 6.52155 22.7133 6.25002C22.4417 5.9785 22.1053 5.84273 21.7039 5.84273C21.3025 5.84273 20.9661 5.9785 20.6945 6.25002C20.423 6.52155 20.2872 6.85801 20.2872 7.2594C20.2872 7.66079 20.423 7.99725 20.6945 8.26877C20.9661 8.5403 21.3025 8.67607 21.7039 8.67607Z" fill="white"/>
</g>
</svg>
