<svg width="35" height="35" viewBox="0 0 35 35" fill="none" xmlns="http://www.w3.org/2000/svg">
<mask id="mask0_309_171" style="mask-type:alpha" maskUnits="userSpaceOnUse" x="0" y="0" width="35" height="35">
<rect x="0.453857" y="0.176025" width="34" height="34" fill="#D9D9D9"/>
</mask>
<g mask="url(#mask0_309_171)">
<path d="M21.7039 22.8427H27.3706V17.176H25.2456V20.7177H21.7039V22.8427ZM7.53723 14.3427H9.66223V10.801H13.2039V8.67603H7.53723V14.3427ZM11.7872 29.926V27.0927H6.12056C5.3414 27.0927 4.67438 26.8153 4.11952 26.2604C3.56466 25.7055 3.28723 25.0385 3.28723 24.2594V7.25936C3.28723 6.48019 3.56466 5.81318 4.11952 5.25832C4.67438 4.70346 5.3414 4.42603 6.12056 4.42603H28.7872C29.5664 4.42603 30.2334 4.70346 30.7883 5.25832C31.3431 5.81318 31.6206 6.48019 31.6206 7.25936V24.2594C31.6206 25.0385 31.3431 25.7055 30.7883 26.2604C30.2334 26.8153 29.5664 27.0927 28.7872 27.0927H23.1206V29.926H11.7872ZM6.12056 24.2594H28.7872V7.25936H6.12056V24.2594Z" fill="white"/>
</g>
</svg>
