<svg width="35" height="35" viewBox="0 0 35 35" fill="none" xmlns="http://www.w3.org/2000/svg">
<mask id="mask0_309_188" style="mask-type:alpha" maskUnits="userSpaceOnUse" x="0" y="0" width="35" height="35">
<rect x="0.453857" y="0.176025" width="34" height="34" fill="#D9D9D9"/>
</mask>
<g mask="url(#mask0_309_188)">
<path d="M6.12048 28.5093V25.676H10.0163L9.44965 25.1802C8.22187 24.094 7.36007 22.8545 6.86423 21.4614C6.3684 20.0683 6.12048 18.6635 6.12048 17.2468C6.12048 14.626 6.90555 12.2944 8.47569 10.252C10.0458 8.20967 12.0941 6.85793 14.6205 6.19682V9.17182C12.9205 9.78571 11.551 10.8305 10.5122 12.3062C9.47326 13.7819 8.95382 15.4288 8.95382 17.2468C8.95382 18.3093 9.15451 19.3423 9.5559 20.3458C9.95729 21.3492 10.583 22.276 11.433 23.126L11.7871 23.4802V20.0093H14.6205V28.5093H6.12048ZM20.2871 28.1552V25.1802C21.9871 24.5663 23.3566 23.5215 24.3955 22.0458C25.4344 20.5701 25.9538 18.9232 25.9538 17.1052C25.9538 16.0427 25.7531 15.0097 25.3517 14.0062C24.9503 13.0027 24.3246 12.076 23.4746 11.226L23.1205 10.8718V14.3427H20.2871V5.84265H28.7871V8.67598H24.8913L25.458 9.17182C26.6149 10.3288 27.459 11.5861 27.9903 12.9437C28.5215 14.3013 28.7871 15.6885 28.7871 17.1052C28.7871 19.726 28.0021 22.0576 26.4319 24.0999C24.8618 26.1423 22.8135 27.494 20.2871 28.1552Z" fill="white"/>
</g>
</svg>
